<svg width="12" height="13" viewBox="0 0 12 13" fill="none" xmlns="http://www.w3.org/2000/svg">
<path d="M5.95238 4.87992H7.14286V3.04995H8.92857V1.82997H7.14286V0H5.95238V1.82997H4.16667V3.04995H5.95238V4.87992ZM3.57143 10.3698C2.91667 10.3698 2.3869 10.9188 2.3869 11.5898C2.3869 12.2608 2.91667 12.8098 3.57143 12.8098C4.22619 12.8098 4.7619 12.2608 4.7619 11.5898C4.7619 10.9188 4.22619 10.3698 3.57143 10.3698ZM9.52381 10.3698C8.86905 10.3698 8.33929 10.9188 8.33929 11.5898C8.33929 12.2608 8.86905 12.8098 9.52381 12.8098C10.1786 12.8098 10.7143 12.2608 10.7143 11.5898C10.7143 10.9188 10.1786 10.3698 9.52381 10.3698ZM3.67262 8.38736L3.69048 8.31416L4.22619 7.31988H8.66071C9.10714 7.31988 9.5 7.06978 9.70238 6.69159L12 2.41556L10.9643 1.82997H10.9583L10.3036 3.04995L8.66071 6.0999H4.48214L4.40476 5.9352L3.07143 3.04995L2.50595 1.82997L1.94643 0.60999H0V1.82997H1.19048L3.33333 6.45979L2.52976 7.95427C2.43452 8.12506 2.38095 8.32636 2.38095 8.53986C2.38095 9.21084 2.91667 9.75984 3.57143 9.75984H10.7143V8.53986H3.82143C3.74405 8.53986 3.67262 8.47276 3.67262 8.38736Z" fill="white"/>
</svg>
