<?xml version="1.0" encoding="utf-8"?>
<!-- Generator: Adobe Illustrator 24.1.1, SVG Export Plug-In . SVG Version: 6.00 Build 0)  -->
<svg version="1.1" id="Layer_1" xmlns="http://www.w3.org/2000/svg" xmlns:xlink="http://www.w3.org/1999/xlink" x="0px" y="0px"
	 viewBox="0 0 512 512" style="enable-background:new 0 0 512 512;" xml:space="preserve">
<style type="text/css">
	.st0{fill:#333333;}
</style>
<g id="XMLID_8_">
	<path id="XMLID_14_" class="st0" d="M254.3,194.9h48.5v-72.8h72.8V73.6h-72.8V0h-48.5v73.6h-73.6v48.5h73.6V194.9z M156.4,415
		c-26.8,0-48.5,21.8-48.5,48.5c0,26.8,21.8,48.5,48.5,48.5s48.5-21.8,48.5-48.5C205,436.7,183.2,415,156.4,415z M400.7,415
		c-26.8,0-48.5,21.8-48.5,48.5c0,26.8,21.8,48.5,48.5,48.5c26.8,0,48.5-21.8,48.5-48.5C449.3,436.7,427.5,415,400.7,415z
		 M160.6,335.5l0.8-3.3l21.8-40.2h181.5c18.4,0,34.3-10,42.7-25.1L502,96.2l-42.7-23.4l0,0l-26.8,49.4l-67.8,121.3H194.1l-3.3-6.7
		l-55.2-114.6l-23.4-48.5L89.5,25.1H10v48.5h48.5l87.8,184.9l-32.6,59.4c-4.2,6.7-5.9,15.1-5.9,23.4c0,26.8,21.8,48.5,48.5,48.5
		h292.8v-48.5H166.5C163.1,341.3,160.6,338.8,160.6,335.5z"/>
</g>
</svg>
